<svg width="20" height="20" viewBox="0 0 20 20" fill="none" xmlns="http://www.w3.org/2000/svg">
<g id="Icon">
<path id="Vector" d="M16.6663 8.33317C16.6663 12.494 12.0505 16.8273 10.5005 18.1657C10.3561 18.2742 10.1803 18.333 9.99967 18.333C9.81901 18.333 9.64324 18.2742 9.49884 18.1657C7.94884 16.8273 3.33301 12.494 3.33301 8.33317C3.33301 6.56506 4.03539 4.86937 5.28563 3.61913C6.53587 2.36888 8.23156 1.6665 9.99967 1.6665C11.7678 1.6665 13.4635 2.36888 14.7137 3.61913C15.964 4.86937 16.6663 6.56506 16.6663 8.33317Z" stroke="var(--stroke-0, #FF6900)" stroke-width="1.66667" stroke-linecap="round" stroke-linejoin="round"/>
<path id="Vector_2" d="M10 10.8333C11.3807 10.8333 12.5 9.71405 12.5 8.33333C12.5 6.95262 11.3807 5.83333 10 5.83333C8.61929 5.83333 7.5 6.95262 7.5 8.33333C7.5 9.71405 8.61929 10.8333 10 10.8333Z" stroke="var(--stroke-0, #FF6900)" stroke-width="1.66667" stroke-linecap="round" stroke-linejoin="round"/>
</g>
</svg>
