<svg preserveAspectRatio="none" width="100%" height="100%" overflow="visible" style="display: block;" viewBox="0 0 118 53" fill="none" xmlns="http://www.w3.org/2000/svg">
<g id="Layer_1" clip-path="url(#clip0_0_4)">
<path id="Vector" d="M118 26.0189H0V27.4068H118V26.0189Z" fill="var(--fill-0, #D41F26)"/>
<path id="Vector_2" d="M31.3358 0H29.9658V53H31.3358V0Z" fill="var(--fill-0, #D41F26)"/>
<path id="Vector_3" d="M21.1889 25.9402C21.1775 24.5214 21.4141 23.1118 21.8875 21.7764C22.3279 20.535 23.0078 19.3948 23.8877 18.4223C24.7605 17.4727 25.8156 16.7139 26.9884 16.1924C29.5761 15.1067 32.4835 15.1067 35.0712 16.1924C36.242 16.7144 37.2932 17.4769 38.1582 18.4316C39.0307 19.4062 39.7043 20.5462 40.1401 21.7857C40.6169 23.1202 40.855 24.5302 40.8433 25.9495C40.8509 27.1458 40.6847 28.3367 40.3502 29.484C40.0467 30.5467 39.5847 31.5561 38.9802 32.4773C38.3879 33.3586 37.6457 34.1262 36.7882 34.7442C35.9086 35.377 34.9253 35.8469 33.8839 36.1322C34.1488 36.8733 34.5364 37.5632 35.0301 38.1724C35.5322 38.8023 36.1141 39.3623 36.7608 39.8379C37.3789 40.2945 38.0547 40.6648 38.7701 40.939C39.3983 41.1861 40.0646 41.3192 40.7383 41.3322V42.1002C39.5985 42.0995 38.4612 41.9927 37.3408 41.781C36.1927 41.5636 35.0727 41.2143 34.0026 40.74C32.8835 40.2464 31.8234 39.6255 30.8426 38.8895C29.7687 38.0635 28.7966 37.1098 27.9474 36.0489C25.9318 35.4322 24.1912 34.1235 23.0246 32.3478C22.4237 31.4411 21.9618 30.4475 21.6546 29.4008C21.3365 28.2758 21.1797 27.1104 21.1889 25.9402ZM36.7152 25.9402C36.7152 22.9978 36.2174 20.7263 35.2219 19.1255C34.7868 18.3916 34.1717 17.7843 33.4363 17.3627C32.7009 16.9411 31.8702 16.7195 31.0252 16.7195C30.1802 16.7195 29.3496 16.9411 28.6142 17.3627C27.8788 17.7843 27.2636 18.3916 26.8286 19.1255C25.8452 20.7263 25.3536 22.9978 25.3536 25.9402C25.3536 28.8826 25.8452 31.1557 26.8286 32.7595C27.2645 33.4923 27.8799 34.0985 28.6153 34.5193C29.3506 34.9401 30.1807 35.1612 31.0252 35.1612C31.8697 35.1612 32.6999 34.9401 33.4352 34.5193C34.1705 34.0985 34.786 33.4923 35.2219 32.7595C36.2205 31.1464 36.7197 28.8703 36.7197 25.931L36.7152 25.9402Z" fill="var(--fill-0, #024E80)"/>
<path id="Vector_4" d="M40.8799 42.2621H40.7246C39.5758 42.2612 38.4294 42.1544 37.2997 41.9429C36.1387 41.723 35.0065 41.369 33.925 40.8881C32.791 40.3843 31.7184 39.7494 30.7284 38.9959C29.6626 38.1737 28.6982 37.2246 27.856 36.1692C25.8249 35.5337 24.0719 34.2087 22.8922 32.4172C22.2888 31.497 21.8269 30.4893 21.5222 29.4285C21.1945 28.2957 21.0314 27.1206 21.0382 25.9402C21.0274 24.4995 21.267 23.0682 21.746 21.7117C22.1931 20.4521 22.8822 19.2948 23.7735 18.3067C24.666 17.3385 25.7445 16.5655 26.9427 16.0351C28.2446 15.4836 29.6416 15.1996 31.0526 15.1996C32.4637 15.1996 33.8607 15.4836 35.1625 16.0351C36.351 16.5663 37.4189 17.3395 38.2998 18.3067C39.1821 19.299 39.866 20.4554 40.3136 21.7117C41.1794 24.2301 41.2528 26.9586 40.5237 29.521C40.2112 30.5997 39.7368 31.6233 39.1172 32.556C38.516 33.4551 37.7614 34.2385 36.8887 34.8692C36.041 35.4852 35.0981 35.9542 34.0985 36.2571C34.3575 36.9255 34.7163 37.5497 35.1625 38.1076C35.655 38.7257 36.2263 39.2748 36.8613 39.7408C37.4643 40.1753 38.1215 40.5269 38.8158 40.7863C39.427 41.0245 40.0745 41.1529 40.7292 41.1657H40.8844L40.8799 42.2621ZM31.0526 15.5123C29.6856 15.4939 28.3302 15.7683 27.0752 16.3173C25.9132 16.8274 24.8659 17.572 23.9973 18.5056C23.134 19.4646 22.4667 20.5873 22.0337 21.8088C21.5636 23.1305 21.3286 24.5262 21.3396 25.931C21.3306 27.0807 21.4844 28.2258 21.7962 29.3314C22.0925 30.3612 22.5388 31.3404 23.1205 32.2367C24.2699 33.9829 25.9827 35.27 27.9656 35.8777H28.0113L28.0387 35.9147C28.88 36.9653 29.8428 37.9097 30.9065 38.7276C31.8757 39.4638 32.9253 40.0848 34.0346 40.5781C35.0971 41.06 36.2112 41.4155 37.3545 41.6376C38.4092 41.835 39.4786 41.9403 40.5511 41.9522V41.4895C39.9114 41.4598 39.2807 41.3255 38.6834 41.0917C37.9539 40.8123 37.2644 40.4358 36.633 39.9721C35.977 39.4872 35.386 38.918 34.8748 38.2788C34.372 37.6559 33.9753 36.9522 33.7012 36.1969L33.6464 36.0396L33.8063 35.9934C34.832 35.7037 35.7995 35.2339 36.6649 34.6055C37.5141 34.002 38.2502 33.25 38.8386 32.3848C39.4434 31.4787 39.9055 30.4829 40.2086 29.4331C40.5391 28.3009 40.7037 27.1256 40.6972 25.9448C40.7081 24.54 40.4731 23.1444 40.0031 21.8227C39.5718 20.5972 38.906 19.47 38.044 18.5056C37.1932 17.5676 36.159 16.8192 35.0073 16.308C33.7587 15.765 32.4113 15.4939 31.0526 15.5123ZM31.0526 35.3087C30.1758 35.3365 29.308 35.1221 28.5422 34.6886C27.7764 34.255 27.1414 33.6186 26.7053 32.8474C26.1646 31.9294 25.7817 30.9251 25.5728 29.8773C25.3117 28.5788 25.1877 27.256 25.2029 25.931C25.1874 24.6075 25.3114 23.2861 25.5728 21.9893C25.7831 20.9469 26.1643 19.9477 26.7007 19.033C27.1494 18.273 27.785 17.6439 28.5453 17.2071C29.3057 16.7703 30.1648 16.5407 31.0389 16.5407C31.913 16.5407 32.7722 16.7703 33.5325 17.2071C34.2929 17.6439 34.9284 18.273 35.3772 19.033C35.9193 19.9458 36.3039 20.9455 36.5142 21.9893C36.7795 23.2856 36.9051 24.6072 36.8887 25.931C36.9048 27.2562 36.7793 28.5794 36.5142 29.8773C36.3002 30.9272 35.9094 31.9319 35.3589 32.8474C34.9209 33.6138 34.2874 34.2466 33.525 34.6796C32.7625 35.1127 31.8991 35.3299 31.0252 35.3087H31.0526ZM31.0526 16.8678C30.2399 16.8518 29.437 17.0512 28.7237 17.4461C28.0108 17.8724 27.4156 18.4739 26.993 19.1949C26.0248 20.7679 25.5362 23.0302 25.5362 25.931C25.5362 28.8317 26.0248 31.0986 26.993 32.667C27.413 33.3901 28.0089 33.9921 28.7237 34.4158C29.443 34.7976 30.2429 34.997 31.0549 34.997C31.8669 34.997 32.6669 34.7976 33.3861 34.4158C34.1017 33.99 34.7001 33.3886 35.126 32.667C36.1033 31.0986 36.5964 28.8317 36.5964 25.931C36.5964 23.0302 36.0759 20.7679 35.0986 19.1949C34.6701 18.4754 34.0723 17.8746 33.3587 17.4461C32.6433 17.0524 31.8393 16.8531 31.0252 16.8678H31.0526Z" fill="var(--fill-0, #024E80)"/>
<path id="Vector_5" d="M65.2288 23.0903C65.3144 22.8932 65.4621 22.7305 65.6489 22.6277C66.11 22.4781 66.5956 22.4215 67.0783 22.4612H67.8409L68.9231 22.4288C69.3159 22.4288 69.704 22.401 70.0922 22.3779C70.4803 22.3547 70.8137 22.3362 71.0968 22.3131C71.1377 22.4178 71.1593 22.5291 71.1608 22.6416V22.9053C71.1608 23.2523 71.042 23.4605 70.8046 23.5252C70.3479 23.5946 70.0328 23.6594 69.7862 23.7242C69.5826 23.7693 69.389 23.8525 69.2154 23.9694C69.0956 24.0542 69.0059 24.1759 68.9597 24.3163C68.9112 24.4655 68.888 24.622 68.8912 24.779C68.8912 24.8252 68.8912 25.2416 68.9414 26.0281C68.9916 26.8146 69.0236 27.7908 69.0875 28.952C69.1515 30.1132 69.2154 31.3716 69.2793 32.7271C69.3433 34.0827 69.4118 35.3688 69.4757 36.5855C69.5396 37.8023 69.5944 38.8571 69.6401 39.7546C69.6858 40.6521 69.7132 41.1981 69.736 41.397C69.7307 41.581 69.7585 41.7644 69.8182 41.9383C69.8772 42.0895 69.9769 42.2209 70.1059 42.3177C70.2899 42.4441 70.4937 42.5379 70.7087 42.5952C71.0386 42.6883 71.3742 42.7594 71.7133 42.808C71.9508 42.8543 72.0695 43.0625 72.0695 43.4326C72.0648 43.6208 72.0434 43.8081 72.0056 43.9924L69.9461 43.8767C69.3296 43.8444 68.6355 43.8259 67.8546 43.8259C67.1422 43.8259 66.3796 43.8259 65.5713 43.8767C64.763 43.9276 64.0826 43.9461 63.5437 43.9924C63.5059 43.8081 63.4845 43.6208 63.4798 43.4326C63.4613 43.2593 63.5015 43.0847 63.594 42.9376C63.6186 42.9028 63.6499 42.8735 63.686 42.8512C63.7221 42.8289 63.7622 42.8143 63.804 42.808C64.4076 42.7519 64.9926 42.5675 65.5211 42.2668C65.656 42.1477 65.7615 41.9982 65.8289 41.8302C65.8964 41.6622 65.9239 41.4806 65.9092 41.2998C65.9092 41.2304 65.9092 40.8835 65.8635 40.245C65.8179 39.6066 65.795 38.8247 65.7631 37.8809C65.7311 36.9372 65.69 35.924 65.6352 34.8275C65.5804 33.7311 65.5256 32.704 65.4708 31.7417C65.416 30.7794 65.3749 29.9467 65.343 29.2435C65.311 28.5402 65.2836 28.1192 65.2608 27.9666L58.6164 43.6177C58.5348 43.7776 58.4433 43.9321 58.3424 44.0803C58.3066 44.1289 58.2595 44.1678 58.2054 44.1936C58.1512 44.2194 58.0917 44.2313 58.0319 44.2284H57.8401C57.7731 44.2323 57.706 44.2213 57.6437 44.196L50.1226 25.9078C50.1226 26.19 50.0769 26.7637 50.045 27.6288C50.013 28.494 49.9673 29.4794 49.9125 30.6036C49.8577 31.7278 49.8029 32.9168 49.7527 34.1336C49.7025 35.3503 49.6477 36.5115 49.6066 37.5617C49.5655 38.6119 49.5244 39.4956 49.4924 40.208C49.4604 40.9205 49.4422 41.3091 49.4422 41.3739C49.439 41.5461 49.4621 41.7177 49.5107 41.8828C49.557 42.0321 49.646 42.1641 49.7664 42.2621C49.9425 42.3907 50.1407 42.4848 50.3509 42.5397C50.6112 42.6137 50.9674 42.697 51.4195 42.7849C51.657 42.8312 51.7757 43.0394 51.7757 43.4095C51.7757 43.4743 51.7757 43.5575 51.7757 43.6547C51.7757 43.7518 51.7483 43.8582 51.7255 43.9693L50.1043 43.8536C49.6066 43.8212 49.1134 43.8027 48.6156 43.8027C48.1179 43.8027 47.643 43.8027 46.9945 43.8536C46.3461 43.9045 45.7615 43.923 45.2455 43.9693C45.1993 43.8777 45.1758 43.7761 45.177 43.6732V43.4095C45.1612 43.2484 45.1964 43.0864 45.2775 42.9468C45.3442 42.8702 45.4342 42.8182 45.5332 42.7988C46.0448 42.7051 46.5382 42.5286 46.9945 42.276C47.1401 42.1765 47.2609 42.044 47.3473 41.889C47.4337 41.7341 47.4833 41.5609 47.4923 41.3831C47.4923 41.2073 47.4923 40.6753 47.5608 39.7916C47.6293 38.908 47.6567 37.8532 47.7206 36.6364C47.7845 35.4197 47.8485 34.1289 47.917 32.7641L48.095 28.952C48.1453 27.7815 48.1909 26.8007 48.2229 26.0142C48.2549 25.2277 48.2731 24.8114 48.2731 24.7651C48.2846 24.6115 48.258 24.4574 48.1958 24.3168C48.1336 24.1763 48.0378 24.0536 47.917 23.9601C47.4288 23.7141 46.9017 23.5575 46.3598 23.4975C46.1223 23.4975 46.0036 23.2708 46.0036 22.8775V22.6138C46.005 22.5013 46.0266 22.39 46.0675 22.2854C46.3506 22.2854 46.7388 22.327 47.2365 22.3501C47.7343 22.3733 48.2412 22.3871 48.7572 22.401L50.2185 22.4334H51.1912C51.4964 22.4285 51.8016 22.4455 52.1045 22.4843C52.2812 22.5062 52.4555 22.5449 52.6251 22.5999C52.7363 22.6297 52.8334 22.6986 52.8991 22.7943C52.9529 22.8791 53.0017 22.9672 53.0452 23.058L59.0776 37.8023L65.2288 23.0903Z" fill="var(--fill-0, #024E80)"/>
<path id="Vector_6" d="M58.0319 44.4134H57.8401C57.7462 44.4166 57.6528 44.3992 57.5661 44.3625L57.5022 44.3301L50.2596 26.7498C50.2596 27.0043 50.2596 27.3142 50.2231 27.6751C50.1911 28.5171 50.15 29.4887 50.0952 30.6499C50.0404 31.8111 49.9856 32.9631 49.9308 34.1752C49.876 35.3873 49.8303 36.5624 49.7847 37.608C49.739 38.7877 49.7025 39.602 49.6705 40.2543C49.634 41.1333 49.6248 41.3692 49.6248 41.4109C49.6203 41.567 49.6388 41.7229 49.6796 41.8735C49.7168 41.9898 49.7886 42.0916 49.8851 42.165C50.0397 42.28 50.215 42.3633 50.4012 42.4102C50.6523 42.4842 51.0085 42.5675 51.456 42.6508C51.6844 42.6924 51.9584 42.8682 51.9584 43.4557C51.9638 43.5451 51.9638 43.6347 51.9584 43.7241C51.9476 43.8329 51.9308 43.941 51.9081 44.0479L51.8762 44.2098H51.7163L50.0998 44.0942C49.6066 44.0618 49.1088 44.0479 48.6202 44.0479C48.1316 44.0479 47.6475 44.0479 47.0082 44.0942C46.3689 44.1405 45.7707 44.1682 45.2638 44.2098H45.1405L45.0857 44.0988C45.0297 43.9821 45.0015 43.8538 45.0035 43.7241V43.4604C44.9823 43.2509 45.0322 43.0404 45.145 42.8636C45.2389 42.7552 45.3659 42.6818 45.5058 42.6554C45.9861 42.5648 46.4487 42.3961 46.8758 42.1557C47.0043 42.0778 47.1128 41.9701 47.1922 41.8414C47.2716 41.7127 47.3197 41.5667 47.3324 41.4155C47.3324 41.2212 47.3324 40.6845 47.3964 39.824C47.4603 38.9635 47.4923 37.9318 47.5608 36.6688C47.6293 35.4058 47.6886 34.1613 47.7526 32.7965L47.9306 28.9844C47.99 27.7214 48.0311 26.7868 48.0631 26.0466C48.0996 25.0751 48.1087 24.8345 48.1087 24.8067C48.1214 24.6829 48.1024 24.5579 48.0536 24.4437C48.0048 24.3295 47.9279 24.2299 47.8302 24.1544C47.3683 23.9248 46.868 23.7852 46.3552 23.7427C45.8985 23.6964 45.8392 23.2153 45.8392 22.9377V22.674C45.8402 22.5376 45.8665 22.4026 45.9168 22.2761L45.967 22.1512H46.0995C46.3826 22.1512 46.7707 22.1975 47.2594 22.216C47.748 22.2345 48.264 22.2576 48.78 22.2668L50.2413 22.2992C50.6706 22.2992 51.0085 22.2992 51.2094 22.2992C51.5147 22.2935 51.82 22.3105 52.1228 22.3501C52.3085 22.3742 52.4918 22.4145 52.6707 22.4704C52.8225 22.5158 52.9545 22.6121 53.0452 22.7434C53.1 22.8359 53.1502 22.9284 53.1959 23.0209L59.0594 37.3628L65.0507 23.0209C65.1525 22.7883 65.3276 22.5963 65.5484 22.475C65.6946 22.3964 66.0051 22.29 67.0645 22.29C67.2426 22.29 67.5212 22.29 67.818 22.29L68.9049 22.2576C69.293 22.2576 69.6812 22.2298 70.0693 22.2113L71.0694 22.1419H71.2019L71.2521 22.2668C71.302 22.3935 71.3283 22.5284 71.3297 22.6647V22.9284C71.3297 23.4743 71.0603 23.664 70.8411 23.7242C70.5032 23.7715 70.1678 23.8364 69.8364 23.9185C69.6573 23.9591 69.487 24.0328 69.3341 24.1359C69.2436 24.1974 69.1748 24.2865 69.1378 24.3904C69.0985 24.5207 69.08 24.6566 69.083 24.7929C69.083 24.8206 69.083 25.0612 69.1286 26.0327C69.1606 26.8192 69.2108 27.8 69.2748 28.952C69.3387 30.104 69.4072 31.3855 69.4711 32.7318C69.5351 34.078 69.599 35.3734 69.6675 36.5902C69.7269 37.7236 69.7817 38.7923 69.8273 39.7593C69.8684 40.6475 69.9004 41.1981 69.9232 41.3877C69.92 41.5448 69.9432 41.7012 69.9917 41.8504C70.0416 41.9699 70.1239 42.0726 70.2292 42.1465C70.3915 42.2637 70.5744 42.3485 70.768 42.3963C71.0908 42.4861 71.4187 42.5556 71.7498 42.6045C71.9782 42.6461 72.2522 42.8219 72.2522 43.4095C72.2484 43.6087 72.2254 43.807 72.1837 44.0017L72.1563 44.159H71.9964L69.9415 44.0433C68.7724 43.9832 67.2609 43.9785 65.5804 44.0433C64.7539 44.0803 64.0963 44.1173 63.562 44.159H63.4022L63.3702 43.997C63.3282 43.8024 63.3053 43.604 63.3017 43.4049C63.2815 43.1871 63.3381 42.9691 63.4615 42.7895C63.4998 42.736 63.5489 42.6913 63.6056 42.6586C63.6623 42.6259 63.7253 42.6058 63.7903 42.5999C64.3595 42.5515 64.9121 42.3812 65.4115 42.1002C65.5247 41.9979 65.6126 41.8701 65.6682 41.7271C65.7237 41.584 65.7453 41.4298 65.7311 41.2767C65.7311 41.2304 65.7311 41.0176 65.6809 40.2311C65.6489 39.602 65.6169 38.8062 65.585 37.8671C65.553 36.9279 65.5074 35.924 65.4526 34.8136C65.3978 33.7033 65.3475 32.7179 65.2927 31.7278C65.2379 30.7378 65.1968 29.942 65.1649 29.2296C65.1649 29.0214 65.1649 28.8502 65.1375 28.7022L58.7808 43.6963C58.6948 43.8577 58.5971 44.0123 58.4885 44.159C58.4393 44.2364 58.3717 44.3003 58.292 44.3447C58.2123 44.3891 58.1229 44.4127 58.0319 44.4134ZM57.7762 44.0433H58.0319C58.0644 44.0462 58.0971 44.0405 58.1267 44.0267C58.1563 44.0129 58.1819 43.9915 58.2008 43.9646C58.2931 43.832 58.3785 43.6946 58.4566 43.5529L65.3521 27.2957L65.4389 27.9434C65.4389 28.1054 65.4891 28.5402 65.521 29.2435C65.553 29.9467 65.5987 30.7933 65.6535 31.7371C65.7083 32.6809 65.7631 33.7634 65.8133 34.8229C65.8635 35.8823 65.9138 36.9649 65.9457 37.8809C65.9777 38.797 66.0097 39.6112 66.0416 40.2404C66.0873 41.1009 66.0919 41.2582 66.0919 41.3045C66.1063 41.5128 66.0725 41.7216 65.9932 41.9144C65.914 42.1072 65.7914 42.2785 65.6352 42.4148C65.0845 42.7386 64.4703 42.936 63.836 42.9931H63.8086C63.8086 42.9931 63.7766 42.9931 63.7264 43.0625C63.6762 43.1319 63.6579 43.1597 63.6579 43.4326C63.6605 43.5552 63.6727 43.6774 63.6944 43.7981C64.2013 43.7565 64.8132 43.7241 65.5622 43.6917C67.2563 43.6269 68.7587 43.6315 69.9552 43.6917L71.8549 43.7981C71.8753 43.6774 71.886 43.5551 71.8868 43.4326C71.8868 43.0301 71.7407 42.9977 71.6813 42.97C71.3364 42.918 70.9949 42.8454 70.6584 42.7525C70.4204 42.6924 70.1957 42.5873 69.9963 42.4426C69.8396 42.3249 69.7192 42.1644 69.6492 41.9799C69.5822 41.7884 69.5497 41.5863 69.5533 41.3831C69.5305 41.1749 69.5031 40.6336 69.4574 39.7407C69.4118 38.7738 69.357 37.7051 69.2976 36.5717C69.2291 35.3549 69.1652 34.0549 69.1012 32.7133C69.0373 31.3716 68.9734 30.0993 68.9049 28.9381C68.8364 27.7769 68.7953 26.8007 68.7633 26.0096C68.7176 24.9502 68.7131 24.7882 68.7131 24.7558C68.7094 24.5802 68.7341 24.4052 68.7861 24.2377C68.8474 24.0636 68.9607 23.9132 69.1104 23.8074C69.2995 23.6723 69.514 23.5778 69.7406 23.5299C70.0791 23.444 70.4221 23.3776 70.768 23.3309C70.8365 23.3078 70.9827 23.2523 70.9827 22.8683V22.6046C70.9871 22.5584 70.9871 22.5119 70.9827 22.4658C70.7269 22.4889 70.4347 22.5074 70.115 22.5213C69.7954 22.5352 69.3341 22.5629 68.9414 22.5722L67.8591 22.6046C67.5303 22.6046 67.2746 22.6046 67.0919 22.6046C66.6413 22.5619 66.1867 22.609 65.7539 22.7434C65.6001 22.8254 65.4779 22.9573 65.4069 23.1181L59.0685 38.3066L52.8762 23.169C52.8351 23.0857 52.7895 23.0024 52.7438 22.9238C52.6979 22.8641 52.6336 22.8217 52.5611 22.8035C52.4029 22.7549 52.241 22.7193 52.0771 22.6971C51.7847 22.6608 51.4902 22.6454 51.1957 22.6508H50.2185L48.7572 22.6185C48.2412 22.6185 47.7252 22.5907 47.232 22.5676L46.1999 22.512C46.1954 22.5582 46.1954 22.6047 46.1999 22.6508V22.9145C46.1999 23.3355 46.3415 23.3494 46.3917 23.3541C46.959 23.403 47.5121 23.56 48.022 23.8167C48.173 23.922 48.2944 24.0651 48.3745 24.2322C48.4545 24.3992 48.4904 24.5844 48.4786 24.7697C48.4786 24.8021 48.4786 24.964 48.433 26.0235C48.401 26.7637 48.3599 27.6982 48.3005 28.9659L48.1224 32.7734C48.0585 34.1613 47.9946 35.4475 47.9306 36.6503C47.8667 37.8532 47.8073 38.9635 47.7663 39.8055C47.7115 40.8927 47.7023 41.2628 47.7023 41.3877C47.6874 41.5939 47.6251 41.7938 47.5204 41.9713C47.4158 42.1488 47.2716 42.2991 47.0995 42.4102C46.6264 42.6744 46.1146 42.8603 45.5834 42.9607C45.5212 42.9688 45.4642 43.0001 45.4236 43.0486C45.4236 43.0486 45.3688 43.1134 45.3688 43.4049V43.6686C45.3641 43.7023 45.3641 43.7366 45.3688 43.7703C45.8255 43.7287 46.378 43.6963 46.9854 43.6639C47.5927 43.6315 48.1818 43.6177 48.6156 43.6177C49.0495 43.6177 49.6203 43.6177 50.118 43.6639L51.5793 43.7703C51.5765 43.7241 51.5765 43.6778 51.5793 43.6315C51.5793 43.539 51.5793 43.4604 51.5793 43.4049C51.5793 42.9977 51.4286 42.97 51.3693 42.9422C50.9126 42.8543 50.5473 42.771 50.2824 42.6924C50.0475 42.6332 49.8268 42.5261 49.634 42.3778C49.4856 42.259 49.3759 42.0978 49.3189 41.9152C49.266 41.7335 49.2413 41.5447 49.2458 41.3554C49.2458 41.3276 49.2458 41.2536 49.296 40.1803C49.3234 39.5326 49.36 38.7183 49.4056 37.5386C49.4513 36.4884 49.497 35.3364 49.5518 34.1058C49.6066 32.8752 49.6614 31.7186 49.7162 30.5759C49.771 29.4331 49.8121 28.4431 49.844 27.6057C49.876 26.7683 49.9034 26.1576 49.9262 25.8754L49.9856 25.1167L57.7762 44.0433Z" fill="var(--fill-0, #024E80)"/>
</g>
<defs>
<clipPath id="clip0_0_4">
<rect width="118" height="53" fill="white"/>
</clipPath>
</defs>
</svg>
