<svg preserveAspectRatio="none" width="100%" height="100%" overflow="visible" style="display: block;" viewBox="0 0 338 46" fill="none" xmlns="http://www.w3.org/2000/svg">
<g id="Layer_1" clip-path="url(#clip0_0_17)">
<path id="Vector" d="M79.9378 11.561C80.5817 12.0277 81.288 12.4013 82.0362 12.6709L81.0703 14.5207C80.667 14.3987 80.2775 14.235 79.9082 14.0323C79.8268 13.9929 79.2458 13.6094 78.1651 12.8818C77.2713 13.2611 76.3086 13.4514 75.3377 13.4404C73.3392 13.4404 71.775 12.8522 70.645 11.6757C69.515 10.4993 68.9488 8.84805 68.9464 6.72205C68.9464 4.60345 69.5138 2.95469 70.6487 1.77578C71.7837 0.596858 73.3195 0.00493271 75.2563 0C77.1807 0 78.7079 0.589459 79.8379 1.76838C80.9679 2.9473 81.5316 4.59605 81.5292 6.71465C81.5489 7.72122 81.3897 8.7233 81.0592 9.67428C80.8014 10.3653 80.4216 11.0043 79.9378 11.561ZM77.8283 10.0812C78.173 9.65993 78.4252 9.17087 78.5685 8.64581C78.7482 8.01815 78.8342 7.36742 78.8239 6.71465C78.8239 5.21758 78.492 4.09662 77.8283 3.35178C77.4936 3.00217 77.0915 2.72394 76.6462 2.53386C76.201 2.34378 75.7219 2.24579 75.2378 2.24579C74.7536 2.24579 74.2745 2.34378 73.8293 2.53386C73.3841 2.72394 72.9819 3.00217 72.6472 3.35178C71.981 4.09168 71.648 5.21018 71.648 6.70725C71.648 8.20433 71.981 9.34009 72.6472 10.1145C72.9567 10.4783 73.3436 10.7684 73.7797 10.9636C74.2157 11.1588 74.6898 11.2542 75.1674 11.2429C75.5334 11.2462 75.897 11.1835 76.2407 11.0579C75.7342 10.724 75.1901 10.4508 74.6197 10.244L75.3599 8.7457C76.2437 9.06003 77.0728 9.51066 77.8172 10.0812H77.8283Z" fill="var(--fill-0, white)"/>
<path id="Vector_2" d="M84.6379 0.221972H87.2617V7.25109C87.2396 7.97645 87.273 8.70244 87.3617 9.42271C87.4597 9.93388 87.7447 10.3902 88.161 10.7028C88.669 11.051 89.278 11.2214 89.893 11.1874C90.4914 11.2307 91.0866 11.0689 91.5806 10.7286C91.9381 10.4565 92.1809 10.0607 92.2616 9.61879C92.3567 8.88292 92.3951 8.14082 92.3763 7.39907V0.221972H95.0002V7.02911C95.0346 8.13467 94.9627 9.24098 94.7855 10.3328C94.6673 10.939 94.3974 11.5054 94.0009 11.9791C93.5833 12.4488 93.0592 12.8116 92.4725 13.0372C91.6729 13.328 90.8248 13.4624 89.9744 13.433C89.0137 13.48 88.0533 13.3328 87.1507 13.0002C86.5643 12.7552 86.0444 12.3749 85.6334 11.8903C85.2802 11.4733 85.027 10.981 84.8932 10.4512C84.6904 9.36469 84.6035 8.25973 84.6342 7.1549L84.6379 0.221972Z" fill="var(--fill-0, white)"/>
<path id="Vector_3" d="M110.551 13.211H107.694L106.562 10.2514H101.38L100.311 13.211H97.5167L102.576 0.221972H105.351L110.551 13.211ZM105.721 8.07238L103.93 3.26299L102.176 8.07238H105.721Z" fill="var(--fill-0, white)"/>
<path id="Vector_4" d="M113.086 13.211V0.329259H115.71V11.0209H122.231V13.211H113.086Z" fill="var(--fill-0, white)"/>
<path id="Vector_5" d="M125.088 13.211V0.221972H127.712V13.211H125.088Z" fill="var(--fill-0, white)"/>
<path id="Vector_6" d="M134.21 13.211V2.4195H130.358V0.221972H140.683V2.4195H136.834V13.211H134.21Z" fill="var(--fill-0, white)"/>
<path id="Vector_7" d="M143.444 13.211V0.221972H153.066V2.4195H146.068V5.29773H152.592V7.48786H146.068V11.0209H153.329V13.211H143.444Z" fill="var(--fill-0, white)"/>
<path id="Vector_8" d="M164.938 8.43494L167.481 9.24883C167.202 10.4894 166.517 11.6014 165.534 12.4082C164.361 13.1919 162.954 13.5463 161.55 13.4114C160.146 13.2766 158.831 12.6608 157.829 11.6683C156.726 10.4845 156.175 8.87148 156.175 6.82934C156.175 4.66881 156.732 2.99046 157.848 1.79427C158.41 1.1997 159.094 0.732074 159.852 0.422652C160.61 0.11323 161.426 -0.0308636 162.244 -1.19719e-10C163.67 -0.0600695 165.062 0.446703 166.115 1.40952C166.767 2.07059 167.227 2.89685 167.444 3.79942L164.853 4.42094C164.733 3.78692 164.388 3.21756 163.881 2.81732C163.375 2.41708 162.741 2.21278 162.096 2.24192C161.652 2.22766 161.211 2.31336 160.805 2.49267C160.399 2.67197 160.038 2.9403 159.75 3.27779C159.15 3.9696 158.85 5.08686 158.85 6.63696C158.85 8.27956 159.147 9.44861 159.739 10.1441C160.017 10.4829 160.369 10.7534 160.768 10.9349C161.167 11.1164 161.602 11.2041 162.041 11.1911C162.703 11.2051 163.346 10.9671 163.839 10.5252C164.414 9.95948 164.798 9.2289 164.938 8.43494Z" fill="var(--fill-0, white)"/>
<path id="Vector_9" d="M170.812 13.211V0.221972H173.435V5.33473H178.576V0.221972H181.2V13.211H178.576V7.53225H173.435V13.211H170.812Z" fill="var(--fill-0, white)"/>
<path id="Vector_10" d="M191.059 13.211V0.221972H194.985L197.343 9.10085L199.674 0.221972H203.608V13.211H201.173V2.98552L198.583 13.211H196.055L193.498 2.98552V13.211H191.059Z" fill="var(--fill-0, white)"/>
<path id="Vector_11" d="M219.004 13.211H216.15L215.014 10.2514H209.837L208.764 13.211H205.98L211.025 0.221972H213.8L219.004 13.211ZM214.193 8.07238L212.401 3.26299L210.647 8.07238H214.193Z" fill="var(--fill-0, white)"/>
<path id="Vector_12" d="M229.78 8.43494L232.323 9.24883C232.044 10.4894 231.359 11.6014 230.376 12.4082C229.204 13.1919 227.796 13.5463 226.392 13.4114C224.988 13.2766 223.673 12.6608 222.671 11.6683C221.561 10.4869 221.006 8.87518 221.006 6.83304C221.006 4.67251 221.563 2.99416 222.679 1.79797C223.242 1.20129 223.928 0.732135 224.688 0.422019C225.448 0.111903 226.266 -0.0319916 227.086 -1.19719e-10C228.512 -0.0600695 229.904 0.446703 230.957 1.40952C231.609 2.07059 232.069 2.89685 232.286 3.79942L229.695 4.42094C229.575 3.79019 229.233 3.2234 228.73 2.82355C228.228 2.4237 227.599 2.21733 226.957 2.24192C226.513 2.22766 226.072 2.31336 225.666 2.49267C225.259 2.67197 224.899 2.9403 224.61 3.27779C224.011 3.9696 223.711 5.08686 223.711 6.63696C223.711 8.27956 224.007 9.44861 224.599 10.1441C224.877 10.4829 225.23 10.7534 225.629 10.9349C226.028 11.1164 226.463 11.2041 226.901 11.1911C227.564 11.2051 228.206 10.9671 228.7 10.5252C229.268 9.957 229.645 9.22668 229.78 8.43494Z" fill="var(--fill-0, white)"/>
<path id="Vector_13" d="M235.654 13.211V0.221972H238.278V5.33473H243.418V0.221972H246.042V13.211H243.418V7.53225H238.278V13.211H235.654Z" fill="var(--fill-0, white)"/>
<path id="Vector_14" d="M249.743 13.211V0.221972H252.367V13.211H249.743Z" fill="var(--fill-0, white)"/>
<path id="Vector_15" d="M255.964 13.211V0.221972H258.517L263.835 8.87888V0.221972H266.271V13.211H263.639L258.403 4.7391V13.211H255.964Z" fill="var(--fill-0, white)"/>
<path id="Vector_16" d="M270.116 13.211V0.221972H279.738V2.4195H272.751V5.29773H279.264V7.48786H272.751V11.0209H280.008V13.211H270.116Z" fill="var(--fill-0, white)"/>
<path id="Vector_17" d="M283.302 13.211V0.221972H288.823C289.845 0.17365 290.867 0.291091 291.851 0.569728C292.48 0.806133 293.012 1.24468 293.364 1.81647C293.746 2.42962 293.943 3.14007 293.931 3.86231C293.965 4.75117 293.658 5.61942 293.072 6.28921C292.385 6.97243 291.48 7.39275 290.515 7.47676C291.033 7.77139 291.507 8.13893 291.921 8.56812C292.474 9.22733 292.969 9.93284 293.401 10.6769L294.989 13.211H291.847L289.952 10.3846C289.532 9.71913 289.07 9.08148 288.568 8.47563C288.353 8.23451 288.082 8.04916 287.78 7.9355C287.35 7.81699 286.904 7.76705 286.459 7.78752H285.926V13.211H283.302ZM285.926 5.71578H287.869C288.658 5.75419 289.449 5.70081 290.226 5.5567C290.527 5.45914 290.787 5.26544 290.966 5.00547C291.149 4.71482 291.241 4.37582 291.229 4.03249C291.251 3.6446 291.128 3.2623 290.885 2.95963C290.626 2.67912 290.276 2.49953 289.897 2.45279C289.682 2.42319 289.046 2.4084 287.98 2.4084H285.926V5.71578Z" fill="var(--fill-0, white)"/>
<path id="Vector_18" d="M300.211 13.211V7.74312L295.452 0.221972H298.527L301.588 5.36062L304.578 0.221972H307.601L302.827 7.76902V13.211H300.211Z" fill="var(--fill-0, white)"/>
<path id="Vector_19" d="M95.6293 22.2934H0V23.4032H95.6293V22.2934Z" fill="var(--fill-0, #D41F26)"/>
<path id="Vector_20" d="M25.3951 1.48721H24.2848V43.8691H25.3951V1.48721Z" fill="var(--fill-0, #D41F26)"/>
<path id="Vector_21" d="M17.1718 22.2305C17.1626 21.0959 17.3543 19.9687 17.7381 18.9009C18.0958 17.9086 18.6468 16.997 19.359 16.2188C20.0656 15.4567 20.9208 14.8474 21.8719 14.4282C23.969 13.56 26.3252 13.56 28.4223 14.4282C29.3712 14.8456 30.223 15.4553 30.9241 16.2188C31.6305 16.9987 32.1763 17.9101 32.5302 18.9009C32.9167 19.9681 33.1097 21.0956 33.1002 22.2305C33.1063 23.1871 32.9716 24.1395 32.7005 25.0569C32.4545 25.9067 32.0801 26.7139 31.5902 27.4505C31.1103 28.1553 30.5088 28.7691 29.8138 29.2633C29.0999 29.7675 28.3034 30.1431 27.4601 30.3732C27.6756 30.9643 27.9897 31.5147 28.389 32.001C28.7949 32.5056 29.2667 32.9535 29.7916 33.3328C30.2925 33.6979 30.8402 33.9941 31.42 34.2133C31.9286 34.4126 32.4688 34.5191 33.0151 34.5277V35.1456C32.0914 35.145 31.1697 35.0596 30.2616 34.8903C29.3312 34.7164 28.4236 34.4372 27.5563 34.0579C26.6494 33.6631 25.7902 33.1667 24.9954 32.5781C24.1251 31.9176 23.3373 31.155 22.649 30.3066C21.0156 29.8134 19.605 28.7669 18.6596 27.347C18.1726 26.6219 17.7983 25.8274 17.5493 24.9904C17.2922 24.0932 17.1651 23.1638 17.1718 22.2305ZM29.7546 22.2305C29.7546 19.8776 29.3512 18.0611 28.5445 16.7811C28.1919 16.1942 27.6933 15.7086 27.0973 15.3714C26.5014 15.0343 25.8282 14.8571 25.1434 14.8571C24.4586 14.8571 23.7854 15.0343 23.1895 15.3714C22.5935 15.7086 22.0949 16.1942 21.7423 16.7811C20.9454 18.0611 20.547 19.8776 20.547 22.2305C20.547 24.5834 20.9454 26.4011 21.7423 27.6836C22.0956 28.2696 22.5944 28.7543 23.1903 29.0908C23.7862 29.4273 24.459 29.6042 25.1434 29.6042C25.8278 29.6042 26.5006 29.4273 27.0965 29.0908C27.6924 28.7543 28.1912 28.2696 28.5445 27.6836C29.3537 26.3986 29.7583 24.5785 29.7583 22.2231L29.7546 22.2305Z" fill="var(--fill-0, white)"/>
<path id="Vector_22" d="M33.1298 35.2825H33.004C32.0729 35.2817 31.1439 35.1963 30.2283 35.0272C29.2875 34.8513 28.3699 34.5683 27.4934 34.1837C26.5745 33.7822 25.7052 33.2757 24.9028 32.6743C24.0398 32.0146 23.2584 31.2545 22.575 30.4102C20.929 29.902 19.5083 28.8424 18.5522 27.4098C18.0632 26.674 17.6889 25.8682 17.442 25.0199C16.866 22.9996 16.9294 20.8506 17.6233 18.8676C17.9848 17.8588 18.5433 16.932 19.2665 16.1411C19.9884 15.3615 20.8625 14.7383 21.8349 14.3098C22.8905 13.8712 24.0224 13.6454 25.1656 13.6454C26.3088 13.6454 27.4407 13.8712 28.4963 14.3098C29.4595 14.7346 30.3249 15.3529 31.0388 16.1263C31.7484 16.9269 32.2952 17.858 32.6487 18.8676C33.0372 19.951 33.2314 21.0944 33.2223 22.2453C33.2287 23.2144 33.0928 24.1791 32.8189 25.1087C32.5664 25.9716 32.1819 26.7903 31.6791 27.5356C31.1929 28.2555 30.5811 28.882 29.8731 29.3854C29.186 29.878 28.4219 30.2531 27.6119 30.4953C27.822 31.0296 28.1128 31.5287 28.4741 31.9751C28.8752 32.4675 29.3379 32.9064 29.8509 33.281C30.348 33.6238 30.888 33.9 31.457 34.1023C31.9518 34.2946 32.4769 34.3973 33.0077 34.4057H33.1335L33.1298 35.2825ZM25.1656 13.8917C24.0578 13.8771 22.9593 14.0964 21.9422 14.5355C21.0056 14.9478 20.1631 15.5471 19.4663 16.2964C18.7652 17.0622 18.2242 17.9603 17.875 18.9379C17.4937 19.9934 17.3033 21.1083 17.3125 22.2305C17.3052 23.1499 17.4298 24.0656 17.6825 24.9497C17.9227 25.7732 18.2844 26.5562 18.7558 27.273C19.6873 28.6693 21.0753 29.6985 22.6824 30.1845H22.7194L22.7416 30.2141C23.4224 31.0551 24.2028 31.8104 25.0657 32.4634C25.8512 33.0522 26.7018 33.5487 27.6007 33.9432C28.4566 34.3221 29.3531 34.6014 30.2727 34.7756C31.1275 34.9335 31.9942 35.0177 32.8633 35.0272V34.6572C32.3449 34.6305 31.8341 34.5218 31.3497 34.3354C30.7585 34.1119 30.1997 33.8109 29.688 33.4401C29.1564 33.0524 28.6774 32.5972 28.2632 32.0861C27.8556 31.5879 27.5342 31.0253 27.3121 30.4213L27.2677 30.2955L27.3972 30.2622C28.2283 30.0301 29.0123 29.6544 29.7139 29.1523C30.4021 28.6698 30.9986 28.0685 31.4755 27.3765C31.9649 26.6529 32.3394 25.858 32.5858 25.0199C32.8534 24.1132 32.9868 23.1722 32.9817 22.2268C32.9906 21.1046 32.8002 19.9898 32.4192 18.9342C32.0706 17.9527 31.531 17.0499 30.8316 16.2779C30.142 15.5279 29.3039 14.9295 28.3705 14.5207C27.3581 14.0889 26.2662 13.8747 25.1656 13.8917ZM25.1656 29.7221C24.4541 29.7444 23.75 29.5722 23.1292 29.2241C22.5083 28.876 21.9943 28.3651 21.6424 27.7465C21.205 27.0147 20.8947 26.2141 20.7246 25.3788C20.513 24.3405 20.4125 23.2826 20.4248 22.2231C20.4125 21.1648 20.513 20.1081 20.7246 19.0711C20.8951 18.2376 21.204 17.4385 21.6387 16.7071C22.0024 16.0994 22.5174 15.5963 23.1336 15.247C23.7498 14.8977 24.4461 14.7141 25.1545 14.7141C25.8629 14.7141 26.5592 14.8977 27.1754 15.247C27.7916 15.5963 28.3066 16.0994 28.6703 16.7071C29.109 17.4373 29.4206 18.2367 29.5918 19.0711C29.8066 20.1077 29.9083 21.1646 29.8953 22.2231C29.9083 23.2829 29.8066 24.3409 29.5918 25.3788C29.4164 26.2154 29.0998 27.0161 28.6555 27.7465C28.3018 28.361 27.7889 28.8687 27.1708 29.2164C26.5528 29.564 25.8524 29.7387 25.1434 29.7221H25.1656ZM25.1656 14.9757C24.5069 14.9629 23.8563 15.1223 23.2782 15.4382C22.7005 15.779 22.2181 16.26 21.8756 16.8366C21.091 18.0944 20.695 19.9072 20.695 22.2231C20.695 24.539 21.091 26.3555 21.8756 27.6096C22.216 28.1878 22.6989 28.6693 23.2782 29.008C23.8611 29.3133 24.5094 29.4728 25.1675 29.4728C25.8255 29.4728 26.4738 29.3133 27.0567 29.008C27.6367 28.6675 28.1216 28.1866 28.4667 27.6096C29.2587 26.3555 29.6584 24.5427 29.6584 22.2231C29.6584 19.9035 29.2365 18.0944 28.4445 16.8403C28.0977 16.2636 27.6133 15.7818 27.0345 15.4382C26.4547 15.1233 25.8032 14.964 25.1434 14.9757H25.1656Z" fill="var(--fill-0, white)"/>
<path id="Vector_23" d="M52.8626 19.9516C52.9331 19.7947 53.0525 19.6649 53.2031 19.5816C53.5767 19.462 53.9703 19.4167 54.3614 19.4484H54.9794L55.8565 19.4226C56.1748 19.4226 56.4894 19.4004 56.804 19.3819C57.1185 19.3634 57.3887 19.3486 57.6181 19.3301C57.6512 19.4137 57.6688 19.5028 57.6699 19.5927V19.8036C57.6699 20.0823 57.5737 20.2488 57.3813 20.303C57.1037 20.3408 56.8283 20.3926 56.556 20.4584C56.391 20.4945 56.2341 20.561 56.0934 20.6545C55.9972 20.7233 55.9248 20.8202 55.8861 20.932C55.8468 21.0513 55.8281 21.1763 55.8306 21.3019C55.8306 21.3389 55.8306 21.6719 55.8713 22.3008C55.9121 22.9297 55.938 23.7103 55.9898 24.6389C56.0416 25.5675 56.0934 26.5738 56.1452 27.6577C56.197 28.7417 56.2525 29.7701 56.3043 30.7431C56.3562 31.7161 56.4006 32.5596 56.4376 33.2773C56.4746 33.995 56.4968 34.4316 56.5153 34.5906C56.511 34.7378 56.5335 34.8845 56.5819 35.0235C56.6297 35.1444 56.7105 35.2495 56.8151 35.3268C56.9625 35.4309 57.1282 35.5062 57.3036 35.5488C57.571 35.6232 57.8429 35.6801 58.1177 35.719C58.3102 35.756 58.4064 35.9225 58.4064 36.2184C58.4028 36.3689 58.3854 36.5187 58.3546 36.6661L56.6855 36.5736C56.1859 36.5477 55.6234 36.5329 54.9905 36.5329C54.4132 36.5329 53.7952 36.5329 53.1401 36.5736C52.4851 36.6143 51.9337 36.6291 51.497 36.6661C51.4661 36.5187 51.4488 36.3689 51.4452 36.2184C51.4301 36.081 51.4628 35.9425 51.5377 35.8263C51.557 35.7975 51.5821 35.7731 51.6114 35.7546C51.6407 35.7361 51.6736 35.724 51.7079 35.719C52.197 35.6741 52.6712 35.5266 53.0994 35.2861C53.2088 35.1909 53.2943 35.0714 53.3489 34.937C53.4036 34.8027 53.4259 34.6575 53.414 34.5129C53.414 34.4612 53.414 34.18 53.377 33.6732C53.34 33.1663 53.3215 32.5337 53.2956 31.7827C53.2697 31.0317 53.2364 30.2141 53.1919 29.3373C53.1475 28.4605 53.1031 27.6392 53.0587 26.8697C53.0143 26.1002 52.981 25.4343 52.9551 24.8757C52.9292 24.317 52.907 23.973 52.8885 23.8509L47.5038 36.3664C47.4364 36.4936 47.3622 36.6171 47.2817 36.7364C47.2519 36.774 47.2135 36.8041 47.1697 36.824C47.126 36.844 47.0781 36.8532 47.0301 36.8511H46.8746C46.8203 36.8542 46.766 36.8454 46.7155 36.8252L40.6202 22.1972C40.6202 22.4229 40.5832 22.8816 40.5573 23.5734C40.5314 24.2652 40.4944 25.0532 40.45 25.9522C40.4056 26.8512 40.3612 27.802 40.3205 28.775C40.2798 29.7479 40.2354 30.6765 40.2021 31.52C40.1687 32.3635 40.1354 33.0627 40.1095 33.6325C40.0836 34.2022 40.0688 34.5129 40.0688 34.5647C40.066 34.7025 40.0847 34.8398 40.1243 34.9717C40.1619 35.0911 40.234 35.1966 40.3316 35.2751C40.4743 35.3779 40.6349 35.4531 40.8053 35.497C41.0162 35.5599 41.3049 35.6228 41.6713 35.6931C41.8637 35.7301 41.9599 35.8966 41.9599 36.1925C41.9599 36.2443 41.9599 36.3109 41.9599 36.3886C41.9599 36.4663 41.9377 36.5514 41.9192 36.6402L40.6054 36.5477C40.2021 36.5218 39.8024 36.507 39.399 36.507C38.9956 36.507 38.6107 36.507 38.0852 36.5477C37.5597 36.5884 37.086 36.6032 36.6678 36.6402C36.6299 36.5671 36.6108 36.4857 36.6123 36.4034V36.1925C36.5995 36.0637 36.628 35.9342 36.6937 35.8226C36.7478 35.7613 36.8207 35.7197 36.9009 35.7042C37.3156 35.6293 37.7154 35.4881 38.0852 35.2861C38.2023 35.2073 38.2995 35.1025 38.3695 34.98C38.4395 34.8574 38.4802 34.7204 38.4886 34.5795C38.4886 34.439 38.4886 34.0135 38.5441 33.3069C38.5996 32.6003 38.6218 31.7568 38.6736 30.7838C38.7254 29.8108 38.7772 28.7824 38.8327 27.6873L38.9771 24.6389C39.0178 23.7029 39.0548 22.9186 39.0807 22.2897C39.1066 21.6608 39.1214 21.3278 39.1214 21.2908C39.1307 21.168 39.1092 21.0448 39.0588 20.9324C39.0084 20.8199 38.9307 20.7219 38.8327 20.6471C38.4376 20.4495 38.0101 20.3242 37.5708 20.2771C37.3783 20.2599 37.2821 20.0934 37.2821 19.7777V19.5668C37.2833 19.4769 37.3008 19.3878 37.3339 19.3042C37.5634 19.3227 37.8779 19.3375 38.2813 19.356C38.6847 19.3745 39.0955 19.3856 39.5137 19.3967L40.698 19.4226H41.4862C41.7336 19.4186 41.981 19.4322 42.2264 19.4632C42.3696 19.4808 42.5109 19.5117 42.6483 19.5557C42.7379 19.5807 42.8163 19.6355 42.8703 19.7111C42.914 19.779 42.9536 19.8494 42.9888 19.922L47.8739 31.742L52.8626 19.9516Z" fill="var(--fill-0, white)"/>
<path id="Vector_24" d="M47.0301 36.9953H46.8746C46.7986 36.9979 46.7228 36.984 46.6526 36.9546L46.6008 36.9287L40.7313 22.8705C40.7313 23.074 40.7313 23.3219 40.7017 23.6104C40.6758 24.2837 40.6425 25.0606 40.598 25.9892C40.5536 26.9178 40.5092 27.839 40.4648 28.812C40.4204 29.7849 40.3834 30.7172 40.3464 31.5533C40.3094 32.4967 40.2798 33.1478 40.2539 33.6695C40.2243 34.3724 40.2169 34.561 40.2169 34.5943C40.2132 34.7192 40.2282 34.8439 40.2613 34.9643C40.2914 35.0573 40.3496 35.1387 40.4278 35.1974C40.5531 35.2894 40.6951 35.356 40.846 35.3934C41.0495 35.4526 41.3382 35.5192 41.7009 35.5858C41.8859 35.6228 42.108 35.7597 42.108 36.2295C42.1125 36.301 42.1125 36.3727 42.108 36.4441C42.0993 36.5311 42.0857 36.6176 42.0673 36.7031L42.0414 36.8326H41.9118L40.6017 36.7401C40.2021 36.7142 39.7987 36.7031 39.4027 36.7031C39.0067 36.7031 38.6144 36.7031 38.0963 36.7401C37.5782 36.7771 37.0934 36.7993 36.6826 36.8326H36.5827L36.5382 36.7475C36.4932 36.6527 36.4704 36.549 36.4716 36.4441V36.2332C36.4535 36.0668 36.494 35.8993 36.5864 35.7597C36.6604 35.6706 36.7643 35.6114 36.8787 35.5932C37.2678 35.5182 37.6425 35.3821 37.989 35.19C38.0932 35.1277 38.181 35.0415 38.2454 34.9386C38.3097 34.8357 38.3487 34.719 38.359 34.598C38.359 34.4427 38.359 34.0135 38.4109 33.3254C38.4627 32.6373 38.4886 31.8123 38.5441 30.8023C38.5996 29.7923 38.6477 28.7972 38.6995 27.7058L38.8439 24.6574C38.892 23.6474 38.9253 22.9001 38.9512 22.3082C38.9808 21.5313 38.9882 21.3389 38.9882 21.3167C38.9984 21.2177 38.983 21.1178 38.9435 21.0264C38.904 20.9351 38.8416 20.8554 38.7624 20.7951C38.3881 20.6115 37.9826 20.4998 37.5671 20.4658C37.197 20.4288 37.1489 20.0478 37.1489 19.8221V19.6112C37.1497 19.5022 37.171 19.3942 37.2118 19.2931L37.2525 19.1932H37.3598C37.5893 19.2117 37.9038 19.2302 38.2998 19.2487C38.6958 19.2672 39.114 19.2783 39.5322 19.2857L40.7165 19.3116C41.0643 19.3116 41.3382 19.3116 41.501 19.3116C41.7484 19.3088 41.9957 19.3224 42.2412 19.3523C42.3917 19.3715 42.5403 19.4037 42.6853 19.4484C42.8083 19.4848 42.9153 19.5617 42.9888 19.6667C43.0332 19.7407 43.0739 19.8147 43.1109 19.8887L47.8628 31.3572L52.7182 19.8887C52.8008 19.7026 52.9426 19.5491 53.1216 19.4521C53.2401 19.3893 53.4917 19.3042 54.3503 19.3042C54.4946 19.3042 54.7204 19.3042 54.9609 19.3042L55.8417 19.2783C56.1563 19.2783 56.4709 19.2561 56.7855 19.2413L57.5959 19.1858H57.7033L57.744 19.2857C57.7844 19.3869 57.8057 19.4948 57.8069 19.6038V19.8147C57.8069 20.2512 57.5885 20.4029 57.4109 20.4547C57.0667 20.5028 56.7929 20.5583 56.5967 20.6064C56.4515 20.6389 56.3135 20.6979 56.1896 20.7803C56.1169 20.8302 56.0614 20.9012 56.0305 20.9838C55.9989 21.0881 55.9839 21.1967 55.9861 21.3056C55.9861 21.3278 55.9861 21.5202 56.0231 22.2971C56.049 22.926 56.0897 23.7103 56.1415 24.6352C56.1933 25.5601 56.2488 26.5774 56.3006 27.654C56.3525 28.7306 56.4043 29.7664 56.4598 30.7394C56.5079 31.6458 56.5523 32.5004 56.5893 33.2736C56.6226 33.9839 56.6485 34.4242 56.667 34.5795C56.6645 34.7051 56.6832 34.8302 56.7225 34.9495C56.763 35.045 56.8297 35.1272 56.915 35.1863C57.0465 35.28 57.1947 35.3478 57.3517 35.386C57.6132 35.4578 57.879 35.5134 58.1474 35.5525C58.3324 35.5895 58.5544 35.7264 58.5544 36.1962C58.5514 36.3567 58.5328 36.5166 58.4989 36.6735L58.4767 36.7956H58.3472L56.6818 36.7031C55.7344 36.655 54.5094 36.6513 53.1475 36.7031C52.4777 36.7327 51.9448 36.7623 51.5118 36.7956H51.3822L51.3563 36.6698C51.3225 36.5129 51.3039 36.353 51.3008 36.1925C51.283 36.0194 51.3291 35.8458 51.4304 35.7042C51.461 35.6607 51.5006 35.6242 51.5466 35.5974C51.5926 35.5706 51.6438 35.554 51.6968 35.5488C52.1584 35.509 52.6062 35.3716 53.0106 35.1456C53.1024 35.0638 53.1737 34.9616 53.2187 34.8472C53.2637 34.7328 53.2811 34.6094 53.2697 34.4871C53.2697 34.4538 53.2697 34.2799 53.229 33.6547C53.2031 33.1478 53.1771 32.5115 53.1512 31.7605C53.1253 31.0095 53.0883 30.2067 53.0439 29.3188C52.9995 28.4309 52.9588 27.6429 52.9144 26.8512C52.87 26.0595 52.8367 25.4269 52.8108 24.8535C52.8108 24.6907 52.8108 24.5501 52.7886 24.4317L47.637 36.4293C47.5673 36.5583 47.4882 36.682 47.4002 36.7993C47.3594 36.8599 47.3043 36.9095 47.2397 36.9437C47.1751 36.9779 47.1031 36.9956 47.0301 36.9953ZM46.8228 36.6994H47.0301C47.0564 36.7017 47.0829 36.6972 47.1069 36.6861C47.1309 36.6751 47.1516 36.658 47.167 36.6365C47.2418 36.5304 47.311 36.4205 47.3743 36.3072L52.9625 23.3071L53.0328 23.8213C53.0328 23.9508 53.0735 24.3022 53.0994 24.8609C53.1253 25.4195 53.1623 26.1002 53.2068 26.8549C53.2512 27.6096 53.2956 28.4753 53.3363 29.3225C53.377 30.1697 53.4177 31.0354 53.4436 31.7679C53.4695 32.5004 53.4954 33.1515 53.5213 33.6584C53.5583 34.3428 53.562 34.4686 53.562 34.5055C53.574 34.6722 53.5468 34.8393 53.4825 34.9934C53.4182 35.1476 53.3187 35.2846 53.192 35.3934C52.7456 35.6524 52.2479 35.8102 51.7338 35.8559H51.7116C51.7116 35.8559 51.6857 35.8559 51.645 35.9114C51.6043 35.9669 51.5895 35.9891 51.5895 36.2073C51.5915 36.3054 51.6014 36.4031 51.6191 36.4996C52.0299 36.4663 52.5258 36.4404 53.1327 36.4145C54.5057 36.3627 55.7233 36.3664 56.6929 36.4145L58.2325 36.4959C58.249 36.3993 58.2577 36.3016 58.2584 36.2036C58.2584 35.8855 58.14 35.8596 58.0918 35.8337C57.812 35.794 57.5351 35.7359 57.2629 35.6598C57.07 35.6117 56.8879 35.5276 56.7262 35.4119C56.5993 35.3178 56.5017 35.1895 56.445 35.042C56.3906 34.8889 56.3643 34.7272 56.3673 34.5647C56.3488 34.3983 56.3266 33.9654 56.2895 33.2514C56.2525 32.4782 56.2081 31.6273 56.16 30.7172C56.1045 29.7442 56.0527 28.7047 56.0009 27.6318C55.9491 26.559 55.8973 25.5416 55.8417 24.613C55.7862 23.6844 55.7529 22.9038 55.727 22.2749C55.69 21.424 55.6863 21.2945 55.6863 21.2686C55.6833 21.1282 55.7033 20.9882 55.7455 20.8543C55.7952 20.7151 55.887 20.5948 56.0083 20.5102C56.1624 20.4036 56.3359 20.3282 56.519 20.2882C56.7225 20.2364 57.0001 20.181 57.3517 20.1292C57.4072 20.1292 57.5256 20.0663 57.5256 19.7592V19.5483C57.5294 19.5127 57.5294 19.4767 57.5256 19.441L56.8225 19.4854C56.5079 19.4854 56.1896 19.515 55.8713 19.5224L54.9943 19.5483C54.7278 19.5483 54.5205 19.5483 54.3725 19.5483C54.0073 19.5142 53.6389 19.5519 53.2882 19.6593C53.1635 19.7249 53.0645 19.8304 53.0069 19.959L47.8702 32.1231L42.8518 20.0145C42.8185 19.9479 42.7815 19.885 42.7445 19.8184C42.7063 19.7719 42.6546 19.7383 42.5965 19.7222C42.4678 19.6851 42.3367 19.6567 42.2042 19.6371C41.9673 19.6081 41.7286 19.5958 41.4899 19.6001C41.3234 19.6001 41.0495 19.6001 40.698 19.6001L39.5137 19.5742C39.0955 19.5742 38.6773 19.552 38.2776 19.5372L37.4412 19.4928C37.4374 19.5285 37.4374 19.5645 37.4412 19.6001V19.811C37.4412 20.1477 37.556 20.1588 37.5967 20.181C38.0563 20.2209 38.5044 20.3463 38.9179 20.5509C39.0402 20.6351 39.1387 20.7496 39.2035 20.8831C39.2684 21.0167 39.2975 21.1648 39.288 21.313C39.288 21.3389 39.288 21.4684 39.2509 22.3193C39.225 22.9075 39.1917 23.6548 39.1436 24.6685L38.9993 27.7169C38.9475 28.8268 38.8957 29.8515 38.8439 30.8134C38.792 31.7753 38.7439 32.6632 38.7106 33.3365C38.6662 34.2059 38.6588 34.5055 38.6588 34.6017C38.6473 34.7668 38.597 34.9268 38.5122 35.0688C38.4273 35.2108 38.3102 35.3309 38.1703 35.4193C37.7876 35.6323 37.3725 35.7811 36.9416 35.8596C36.8912 35.866 36.845 35.8911 36.8121 35.9299C36.8121 35.9299 36.7677 35.9817 36.7677 36.2147V36.4256C36.7638 36.4526 36.7638 36.48 36.7677 36.507C37.1378 36.4774 37.5856 36.4478 38.0778 36.4219C38.57 36.396 39.0474 36.3849 39.399 36.3849C39.7506 36.3849 40.2132 36.3849 40.6165 36.4256C41.0199 36.4663 41.4085 36.4774 41.8008 36.507C41.7985 36.47 41.7985 36.433 41.8008 36.396C41.8008 36.322 41.8008 36.2628 41.8008 36.2147C41.8008 35.8892 41.6787 35.867 41.6306 35.8448C41.2605 35.7745 40.9644 35.7079 40.7498 35.645C40.5594 35.5976 40.3806 35.512 40.2243 35.3934C40.1044 35.2981 40.0155 35.1694 39.9689 35.0235C39.926 34.877 39.906 34.7247 39.9097 34.5721C39.9097 34.5721 39.9097 34.4908 39.9504 33.6325C39.9726 33.1145 40.0022 32.4634 40.0392 31.52C40.0762 30.6802 40.1132 29.759 40.1576 28.775C40.2021 27.7909 40.2465 26.866 40.2909 25.9522C40.3353 25.0384 40.3686 24.2467 40.3945 23.5771C40.4204 22.9075 40.4426 22.4192 40.4611 22.1935L40.5092 21.5868L46.8228 36.6994Z" fill="var(--fill-0, white)"/>
<path id="Vector_25" d="M70.3601 32.1859H73.1172V37.9942C73.5774 37.9969 74.022 37.8281 74.3644 37.5207C74.7848 36.8562 75.1228 36.1432 75.371 35.3971C75.9409 33.9173 76.5145 32.9998 77.0919 32.6447C77.6655 32.2747 78.5722 32.1046 79.8601 32.1046H80.2598V34.143H79.8675C79.4438 34.1156 79.0195 34.1865 78.6277 34.3502C78.3597 34.4983 78.14 34.7205 77.9949 34.9902C77.7162 35.5586 77.4775 36.1458 77.2806 36.7475C77.139 37.1598 76.9555 37.5565 76.7329 37.9313C76.4676 38.3106 76.1113 38.6171 75.6967 38.8229C76.3074 38.9943 76.843 39.3656 77.2177 39.8773C77.7245 40.5749 78.1655 41.318 78.5352 42.097L80.3856 45.8409H77.1437L75.5153 42.3116L75.3562 42.023C75.3229 41.9749 75.2082 41.7603 75.012 41.383C74.8042 40.9125 74.5091 40.4857 74.1423 40.1251C73.8303 39.9345 73.4674 39.8441 73.1024 39.8662V45.8409H70.3453L70.3601 32.1859Z" fill="var(--fill-0, white)"/>
<path id="Vector_26" d="M82.1842 32.1859H85.267L88.4497 39.2706L91.1698 32.1859H94.0491L89.4378 42.5446C89.0563 43.4708 88.5386 44.3349 87.902 45.1084C87.6507 45.3947 87.3393 45.622 86.99 45.7742C86.6407 45.9264 86.2622 45.9997 85.8813 45.9889C85.2409 46.0051 84.6006 45.9517 83.9717 45.8298V43.784C84.364 43.8099 84.7119 43.821 85.0338 43.821C85.5177 43.8634 86.0016 43.7408 86.4068 43.4732C86.794 43.0458 87.0676 42.5281 87.2025 41.9675L82.1842 32.1859Z" fill="var(--fill-0, white)"/>
<path id="Vector_27" d="M107.453 45.8335H104.456L103.253 42.7333H97.8091L96.6803 45.8335H93.7567L99.0748 32.1859H101.987L107.453 45.8335ZM102.38 40.4322L100.5 35.3712L98.6492 40.4322H102.38Z" fill="var(--fill-0, white)"/>
<path id="Vector_28" d="M111.273 32.1859H120.836V45.8335H118.079V34.4945H113.985V40.3249C114.013 41.4927 113.957 42.6611 113.819 43.821C113.741 44.4172 113.452 44.9659 113.005 45.3674C112.572 45.7373 111.894 45.9186 110.98 45.9186C110.655 45.9186 110.07 45.889 109.219 45.8261V43.6915H109.833C110.236 43.7317 110.642 43.6506 110.999 43.4584C111.195 43.303 111.295 42.922 111.295 42.3116V39.9661L111.273 32.1859Z" fill="var(--fill-0, white)"/>
<path id="Vector_29" d="M124.855 32.1859H127.445V41.272L132.997 32.1859H135.743V45.8335H133.152V36.925L127.63 45.8335H124.873L124.855 32.1859Z" fill="var(--fill-0, white)"/>
<path id="Vector_30" d="M142.741 45.8335V34.4945H138.692V32.1859H149.539V34.4945H145.498V45.8335H142.741Z" fill="var(--fill-0, white)"/>
<path id="Vector_31" d="M152.474 45.8335V32.1859H162.592V34.4945H155.227V37.5207H162.081V39.8181H155.216V43.5176H162.836V45.8187L152.474 45.8335Z" fill="var(--fill-0, white)"/>
<path id="Vector_32" d="M166.371 32.1859H169.128V37.9942C169.588 37.9969 170.032 37.8281 170.375 37.5207C170.795 36.8562 171.133 36.1432 171.381 35.3971C171.951 33.9173 172.525 32.9998 173.102 32.6447C173.676 32.2747 174.583 32.1046 175.871 32.1046H176.27V34.143H175.878C175.454 34.1156 175.03 34.1865 174.638 34.3502C174.37 34.4983 174.15 34.7205 174.005 34.9902C173.727 35.5586 173.488 36.1458 173.291 36.7475C173.15 37.1598 172.966 37.5565 172.743 37.9313C172.478 38.3106 172.122 38.6171 171.707 38.8229C172.318 38.9943 172.853 39.3656 173.228 39.8773C173.735 40.5749 174.176 41.318 174.546 42.097L176.396 45.8409H173.158L171.53 42.3116L171.37 42.023C171.337 41.9749 171.222 41.7603 171.026 41.383C170.819 40.9115 170.522 40.4844 170.153 40.1251C169.842 39.9341 169.48 39.8437 169.117 39.8662V45.8409H166.359L166.371 32.1859Z" fill="var(--fill-0, white)"/>
<path id="Vector_33" d="M185.515 45.8335V32.1859H189.638L192.113 41.494L194.563 32.1859H198.697V45.8335H196.144V35.1049L193.435 45.8335H190.781L188.08 35.1049V45.8335H185.515Z" fill="var(--fill-0, white)"/>
<path id="Vector_34" d="M214.888 45.8335H211.891L210.699 42.7333H205.244L204.115 45.8335H201.192L206.506 32.1859H209.419L214.888 45.8335ZM209.815 40.4322L207.935 35.3712L206.084 40.4322H209.815Z" fill="var(--fill-0, white)"/>
<path id="Vector_35" d="M217.542 32.1859H220.299V43.5435H224.244V32.1859H226.994V43.5435H231.065V32.1859H233.811L233.829 45.8409H217.546L217.542 32.1859Z" fill="var(--fill-0, white)"/>
<path id="Vector_36" d="M237.841 32.1859H240.431V41.272L245.983 32.1859H248.695V45.8335H246.105V36.925L240.583 45.8335H237.83L237.841 32.1859Z" fill="var(--fill-0, white)"/>
<path id="Vector_37" d="M252.663 45.8335V32.1859H255.42V37.5577H260.819V32.1859H263.576V45.8335H260.819V39.8662H255.42V45.8335H252.663Z" fill="var(--fill-0, white)"/>
<path id="Vector_38" d="M267.57 45.8335V32.1859H277.688V34.4945H270.323V37.5207H277.192V39.8181H270.323V43.5176H277.95V45.8187L267.57 45.8335Z" fill="var(--fill-0, white)"/>
<path id="Vector_39" d="M281.433 45.8335V32.1859H285.855C286.951 32.142 288.049 32.2114 289.131 32.3931C289.92 32.5991 290.614 33.0707 291.096 33.7286C291.651 34.4998 291.93 35.4357 291.888 36.3849C291.911 37.1157 291.755 37.8411 291.433 38.4973C291.16 39.0328 290.763 39.4947 290.274 39.844C289.844 40.1512 289.357 40.3712 288.842 40.4914C287.897 40.6417 286.941 40.7061 285.985 40.6838H284.186V45.8335H281.433ZM284.186 34.4945V38.3679H285.704C286.437 38.4097 287.172 38.3373 287.883 38.1533C288.232 38.0248 288.532 37.7907 288.742 37.4837C288.955 37.1711 289.065 36.7999 289.057 36.4219C289.073 35.9712 288.915 35.5316 288.616 35.1937C288.326 34.8707 287.934 34.6566 287.506 34.5869C286.848 34.5083 286.185 34.4773 285.522 34.4945H284.186Z" fill="var(--fill-0, white)"/>
<path id="Vector_40" d="M295.326 32.1859H297.916V41.272L303.442 32.1859H306.188V45.8335H303.597V36.925L298.076 45.8335H295.326V32.1859Z" fill="var(--fill-0, white)"/>
<path id="Vector_41" d="M314.037 38.649C314.037 37.2136 314.437 36.1506 315.236 35.46C315.914 34.88 316.783 34.5728 317.675 34.598C318.16 34.5802 318.644 34.6641 319.094 34.8445C319.545 35.0248 319.953 35.2975 320.292 35.645C320.644 36.0368 320.915 36.4945 321.09 36.9917C321.265 37.4888 321.339 38.0157 321.309 38.5417C321.347 39.3519 321.192 40.1595 320.858 40.8983C320.564 41.4617 320.109 41.9252 319.551 42.2302C318.977 42.5472 318.331 42.7103 317.675 42.7037C317.187 42.7235 316.701 42.6409 316.247 42.4612C315.793 42.2815 315.382 42.0087 315.04 41.6604C314.371 40.9649 314.037 39.9611 314.037 38.649ZM315.388 38.649C315.388 39.6356 315.605 40.3755 316.039 40.8687C316.243 41.1019 316.494 41.2888 316.776 41.4168C317.058 41.5449 317.364 41.6112 317.673 41.6112C317.983 41.6112 318.289 41.5449 318.571 41.4168C318.852 41.2888 319.104 41.1019 319.307 40.8687C319.74 40.3693 319.955 39.6146 319.955 38.5972C320.01 37.8147 319.779 37.0387 319.303 36.4145C319.1 36.1825 318.849 35.9966 318.567 35.8693C318.286 35.742 317.98 35.6761 317.671 35.6761C317.362 35.6761 317.057 35.742 316.776 35.8693C316.494 35.9966 316.243 36.1825 316.039 36.4145C315.605 36.9127 315.388 37.6576 315.388 38.649Z" fill="var(--fill-0, white)"/>
<path id="Vector_42" d="M322.105 38.649C322.105 37.2136 322.505 36.1506 323.304 35.46C323.983 34.8795 324.854 34.5722 325.747 34.598C326.231 34.5807 326.714 34.6649 327.164 34.8452C327.614 35.0255 328.021 35.298 328.359 35.645C328.712 36.0368 328.983 36.4945 329.158 36.9917C329.333 37.4888 329.407 38.0157 329.377 38.5417C329.415 39.3519 329.26 40.1595 328.926 40.8983C328.634 41.4632 328.178 41.9272 327.619 42.2302C327.046 42.5472 326.401 42.7104 325.747 42.7037C325.259 42.7237 324.772 42.6412 324.318 42.4615C323.864 42.2818 323.453 42.0089 323.112 41.6604C322.443 40.9649 322.107 39.9611 322.105 38.649ZM323.459 38.649C323.459 39.6356 323.675 40.3755 324.107 40.8687C324.311 41.1019 324.562 41.2888 324.844 41.4168C325.125 41.5449 325.431 41.6112 325.741 41.6112C326.051 41.6112 326.357 41.5449 326.638 41.4168C326.92 41.2888 327.171 41.1019 327.375 40.8687C327.808 40.3693 328.026 39.6146 328.026 38.5972C328.026 37.6354 327.808 36.9102 327.371 36.4145C327.167 36.1825 326.916 35.9966 326.635 35.8693C326.353 35.742 326.048 35.6761 325.739 35.6761C325.43 35.6761 325.125 35.742 324.843 35.8693C324.562 35.9966 324.311 36.1825 324.107 36.4145C323.67 36.9127 323.452 37.6576 323.452 38.649H323.459Z" fill="var(--fill-0, white)"/>
<path id="Vector_43" d="M330.176 38.649C330.176 37.2136 330.572 36.1518 331.372 35.46C332.051 34.8807 332.922 34.5736 333.814 34.598C334.299 34.5807 334.783 34.6648 335.233 34.8451C335.684 35.0254 336.092 35.2979 336.431 35.645C337.107 36.3455 337.445 37.311 337.445 38.5417C337.484 39.3516 337.33 40.1591 336.997 40.8983C336.703 41.4626 336.246 41.9263 335.687 42.2302C335.114 42.5477 334.469 42.7109 333.814 42.7037C333.327 42.7237 332.84 42.6412 332.386 42.4615C331.932 42.2818 331.521 42.0089 331.179 41.6604C330.511 40.9649 330.176 39.9611 330.176 38.649ZM331.527 38.649C331.527 39.6442 331.742 40.3878 332.179 40.8687C332.382 41.1018 332.633 41.2887 332.914 41.4167C333.196 41.5447 333.501 41.611 333.811 41.611C334.12 41.611 334.426 41.5447 334.707 41.4167C334.989 41.2887 335.24 41.1018 335.443 40.8687C335.876 40.3693 336.094 39.6146 336.094 38.5972C336.094 37.6354 335.876 36.9102 335.439 36.4145C335.235 36.1826 334.985 35.9968 334.704 35.8695C334.423 35.7422 334.117 35.6763 333.809 35.6763C333.5 35.6763 333.195 35.7422 332.914 35.8695C332.633 35.9968 332.382 36.1826 332.179 36.4145C331.742 36.9139 331.527 37.6576 331.527 38.649Z" fill="var(--fill-0, white)"/>
<path id="Vector_44" d="M320.71 8.40534C320.61 8.94917 320.258 10.281 320.147 10.6251H313.904V10.1552C315.014 10.0812 315.114 9.99244 315.114 8.93437V4.14348C315.114 3.08541 314.988 2.98552 314.045 2.91153V2.44539H317.967V2.91153C316.987 2.99662 316.857 3.08541 316.857 4.14348V9.02316C316.857 9.71498 316.883 10.0294 317.575 10.0405C317.601 10.0405 318.178 10.0405 318.23 10.0405C318.944 10.0405 319.137 9.88885 319.437 9.5485C319.764 9.1547 320.031 8.7146 320.229 8.24256L320.71 8.40534Z" fill="var(--fill-0, white)"/>
<path id="Vector_45" d="M328.715 8.40534C328.615 8.94917 328.263 10.281 328.148 10.6251H321.909V10.1552C323.019 10.0812 323.115 9.99244 323.115 8.93437V4.14348C323.115 3.08541 322.989 2.98552 322.046 2.91153V2.44539H325.972V2.91153C324.992 2.99662 324.862 3.08541 324.862 4.14348V9.02316C324.862 9.71498 324.884 10.0294 325.576 10.0405C325.602 10.0405 326.183 10.0405 326.231 10.0405C326.949 10.0405 327.138 9.88885 327.442 9.5485C327.767 9.15365 328.034 8.71378 328.234 8.24256L328.715 8.40534Z" fill="var(--fill-0, white)"/>
<path id="Vector_46" d="M338 8.45713C337.805 9.14475 337.57 9.82045 337.297 10.4808C336.539 10.6754 335.762 10.7858 334.98 10.81C331.598 10.81 330.199 8.63471 330.199 6.63326C330.199 4.04359 332.186 2.26781 335.206 2.26781C336.007 2.29744 336.803 2.39897 337.586 2.57118C337.648 3.1631 337.737 4.09168 337.822 4.64661L337.319 4.7354C337.056 3.75503 336.679 3.28889 336.013 3.02252C335.656 2.89903 335.28 2.84015 334.902 2.84864C333.078 2.84864 332.16 4.36915 332.16 6.3447C332.16 8.64581 333.344 10.2033 335.065 10.2033C336.124 10.2033 336.827 9.65208 337.508 8.26846L338 8.45713Z" fill="var(--fill-0, white)"/>
</g>
<defs>
<clipPath id="clip0_0_17">
<rect width="338" height="46" fill="white"/>
</clipPath>
</defs>
</svg>
